ffmpeg started on 2025-05-12 at 15:57:11
Report written to "D:\Convert\FFMetrics\reports\ssim_report-6.txt"
Log level: 32
Command line:
ffmpeg -hide_banner -nostdin -i "G:\\\xc0\xed\xe8\xec\xe5\\\xce\xed\xe3\xee\xe8\xed\xe3\xe8\\!_35_\xcb\xe5\xf2\xee_2024\\DreamCast\\\xcb\xfe\xe1\xee\xe2\xfc \xed\xe5\xe4\xe5\xeb\xe8\xec\xe0 \xec\xe5\xe6\xe4\xf3 \xe1\xeb\xe8\xe7\xed\xe5\xf6\xe0\xec\xe8\\[DC] Koi wa Futago de Warikirenai - 11_Telegram_HEVC.mkv" -i "G:\\\xc0\xed\xe8\xec\xe5\\\xce\xed\xe3\xee\xe8\xed\xe3\xe8\\!_35_\xcb\xe5\xf2\xee_2024\\DreamCast\\\xcb\xfe\xe1\xee\xe2\xfc \xed\xe5\xe4\xe5\xeb\xe8\xec\xe0 \xec\xe5\xe6\xe4\xf3 \xe1\xeb\xe8\xe7\xed\xe5\xf6\xe0\xec\xe8\\[DC] Koi wa Futago de Warikirenai - 11_Telegram.mp4" -lavfi "[0:v]settb=AVTB,setpts=PTS-STARTPTS,format=pix_fmts=yuv420p10,fps=24000/1001,scale=1920:1080:flags=bicubic[main];[1:v]settb=AVTB,setpts=PTS-STARTPTS,format=pix_fmts=yuv420p,fps=24000/1001,scale=1920:1080:flags=bicubic[ref];[main][ref]ssim=eof_action=endall:stats_file='D\\:/Convert/FFMetrics/logs/ssim_logfile-6.txt'" -f null -
Input #0, matroska,webm, from 'G:\Аниме\Онгоинги\!_35_Лето_2024\DreamCast\Любовь неделима между близнецами\[DC] Koi wa Futago de Warikirenai - 11_Telegram_HEVC.mkv':
  Metadata:
    COMPATIBLE_BRANDS: isomiso2avc1mp41
    MAJOR_BRAND     : isom
    MINOR_VERSION   : 512
    ENCODER         : Lavf61.7.100
  Duration: 00:23:46.60, start: -0.021000, bitrate: 940 kb/s
  Stream #0:0: Video: hevc (Main 10), yuv420p10le(tv, bt709, progressive), 1920x1080 [SAR 1:1 DAR 16:9], 23.98 fps, 23.98 tbr, 1k tbn (default)
      Metadata:
        HANDLER_NAME    : VideoHandler
        VENDOR_ID       : [0][0][0][0]
        ENCODER         : Lavc61.19.100 libx265
        BPS             : 743798
        DURATION        : 00:23:46.466708333
        NUMBER_OF_FRAMES: 34201
        NUMBER_OF_BYTES : 132625474
        _STATISTICS_WRITING_APP: mkvpropedit v66.0.0 ('Josie') 64-bit
        _STATISTICS_WRITING_DATE_UTC: 2025-05-07 16:22:55
        _STATISTICS_TAGS: BPS DURATION NUMBER_OF_FRAMES NUMBER_OF_BYTES
  Stream #0:1: Audio: aac (LC), 48000 Hz, stereo, fltp (default)
      Metadata:
        HANDLER_NAME    : SoundHandler
        VENDOR_ID       : [0][0][0][0]
        ENCODER         : Lavc61.19.100 aac
        BPS             : 193122
        DURATION        : 00:23:46.602000000
        NUMBER_OF_FRAMES: 66873
        NUMBER_OF_BYTES : 34438559
        _STATISTICS_WRITING_APP: mkvpropedit v66.0.0 ('Josie') 64-bit
        _STATISTICS_WRITING_DATE_UTC: 2025-05-07 16:22:55
        _STATISTICS_TAGS: BPS DURATION NUMBER_OF_FRAMES NUMBER_OF_BYTES
Input #1, mov,mp4,m4a,3gp,3g2,mj2, from 'G:\Аниме\Онгоинги\!_35_Лето_2024\DreamCast\Любовь неделима между близнецами\[DC] Koi wa Futago de Warikirenai - 11_Telegram.mp4':
  Metadata:
    major_brand     : isom
    minor_version   : 512
    compatible_brands: isomiso2avc1mp41
    encoder         : Lavf61.1.100
  Duration: 00:23:46.58, start: 0.000000, bitrate: 3797 kb/s
  Stream #1:0[0x1](und): Video: h264 (High) (avc1 / 0x31637661), yuv420p(tv, bt709, progressive), 1920x1080 [SAR 1:1 DAR 16:9], 3649 kb/s, 23.98 fps, 23.98 tbr, 24k tbn (default)
      Metadata:
        handler_name    : VideoHandler
        vendor_id       : [0][0][0][0]
        encoder         : Lavc61.3.100 h264_qsv
  Stream #1:1[0x2](und): Audio: aac (HE-AACv2) (mp4a / 0x6134706D), 48000 Hz, stereo, fltp, 144 kb/s (default)
      Metadata:
        handler_name    : SoundHandler
        vendor_id       : [0][0][0][0]
Stream mapping:
  Stream #0:0 (hevc) -> settb:default
  Stream #1:0 (h264) -> settb:default
  ssim:default -> Stream #0:0 (wrapped_avframe)
  Stream #0:1 -> #0:1 (aac (native) -> pcm_s16le (native))
Output #0, null, to 'pipe:':
  Metadata:
    COMPATIBLE_BRANDS: isomiso2avc1mp41
    MAJOR_BRAND     : isom
    MINOR_VERSION   : 512
    encoder         : Lavf61.7.100
  Stream #0:0: Video: wrapped_avframe, yuv420p10le(tv, bt709, progressive), 1920x1080 [SAR 1:1 DAR 16:9], q=2-31, 200 kb/s, 23.98 fps, 23.98 tbn
      Metadata:
        encoder         : Lavc61.19.100 wrapped_avframe
  Stream #0:1: Audio: pcm_s16le, 48000 Hz, stereo, s16, 1536 kb/s (default)
      Metadata:
        HANDLER_NAME    : SoundHandler
        VENDOR_ID       : [0][0][0][0]
        _STATISTICS_TAGS: BPS DURATION NUMBER_OF_FRAMES NUMBER_OF_BYTES
        BPS             : 193122
        DURATION        : 00:23:46.602000000
        NUMBER_OF_FRAMES: 66873
        NUMBER_OF_BYTES : 34438559
        _STATISTICS_WRITING_APP: mkvpropedit v66.0.0 ('Josie') 64-bit
        _STATISTICS_WRITING_DATE_UTC: 2025-05-07 16:22:55
        encoder         : Lavc61.19.100 pcm_s16le
frame=  177 fps=0.0 q=-0.0 size=N/A time=00:00:07.38 bitrate=N/A speed=14.3x    frame=  371 fps=363 q=-0.0 size=N/A time=00:00:15.47 bitrate=N/A speed=15.1x    frame=  580 fps=375 q=-0.0 size=N/A time=00:00:24.19 bitrate=N/A speed=15.6x    frame=  804 fps=392 q=-0.0 size=N/A time=00:00:33.53 bitrate=N/A speed=16.3x    frame= 1010 fps=392 q=-0.0 size=N/A time=00:00:42.12 bitrate=N/A speed=16.3x    frame= 1221 fps=394 q=-0.0 size=N/A time=00:00:50.92 bitrate=N/A speed=16.5x    frame= 1406 fps=390 q=-0.0 size=N/A time=00:00:58.64 bitrate=N/A speed=16.3x    frame= 1628 fps=395 q=-0.0 size=N/A time=00:01:07.90 bitrate=N/A speed=16.5x    frame= 1824 fps=394 q=-0.0 size=N/A time=00:01:16.07 bitrate=N/A speed=16.4x    frame= 2031 fps=394 q=-0.0 size=N/A time=00:01:24.70 bitrate=N/A speed=16.4x    frame= 2254 fps=398 q=-0.0 size=N/A time=00:01:34.01 bitrate=N/A speed=16.6x    frame= 2508 fps=405 q=-0.0 size=N/A time=00:01:44.60 bitrate=N/A speed=16.9x    frame= 2765 fps=412 q=-0.0 size=N/A time=00:01:55.32 bitrate=N/A speed=17.2x    frame= 3019 fps=419 q=-0.0 size=N/A time=00:02:05.91 bitrate=N/A speed=17.5x    frame= 3288 fps=425 q=-0.0 size=N/A time=00:02:17.13 bitrate=N/A speed=17.7x    frame= 3549 fps=430 q=-0.0 size=N/A time=00:02:28.02 bitrate=N/A speed=  18x    frame= 3801 fps=434 q=-0.0 size=N/A time=00:02:38.53 bitrate=N/A speed=18.1x    frame= 4031 fps=435 q=-0.0 size=N/A time=00:02:48.12 bitrate=N/A speed=18.1x    frame= 4290 fps=438 q=-0.0 size=N/A time=00:02:58.92 bitrate=N/A speed=18.3x    frame= 4530 fps=440 q=-0.0 size=N/A time=00:03:08.93 bitrate=N/A speed=18.3x    frame= 4800 fps=443 q=-0.0 size=N/A time=00:03:20.20 bitrate=N/A speed=18.5x    frame= 5010 fps=442 q=-0.0 size=N/A time=00:03:28.95 bitrate=N/A speed=18.4x    frame= 5231 fps=441 q=-0.0 size=N/A time=00:03:38.17 bitrate=N/A speed=18.4x    frame= 5480 fps=443 q=-0.0 size=N/A time=00:03:48.56 bitrate=N/A speed=18.5x    frame= 5737 fps=445 q=-0.0 size=N/A time=00:03:59.28 bitrate=N/A speed=18.6x    frame= 5963 fps=445 q=-0.0 size=N/A time=00:04:08.70 bitrate=N/A speed=18.6x    frame= 6190 fps=445 q=-0.0 size=N/A time=00:04:18.17 bitrate=N/A speed=18.5x    frame= 6430 fps=445 q=-0.0 size=N/A time=00:04:28.18 bitrate=N/A speed=18.6x    frame= 6650 fps=445 q=-0.0 size=N/A time=00:04:37.36 bitrate=N/A speed=18.5x    frame= 6861 fps=443 q=-0.0 size=N/A time=00:04:46.16 bitrate=N/A speed=18.5x    frame= 7077 fps=443 q=-0.0 size=N/A time=00:04:55.16 bitrate=N/A speed=18.5x    frame= 7295 fps=442 q=-0.0 size=N/A time=00:05:04.26 bitrate=N/A speed=18.4x    frame= 7543 fps=443 q=-0.0 size=N/A time=00:05:14.60 bitrate=N/A speed=18.5x    frame= 7807 fps=445 q=-0.0 size=N/A time=00:05:25.61 bitrate=N/A speed=18.6x    frame= 8038 fps=445 q=-0.0 size=N/A time=00:05:35.25 bitrate=N/A speed=18.6x    frame= 8238 fps=443 q=-0.0 size=N/A time=00:05:43.59 bitrate=N/A speed=18.5x    frame= 8444 fps=442 q=-0.0 size=N/A time=00:05:52.18 bitrate=N/A speed=18.5x    frame= 8692 fps=443 q=-0.0 size=N/A time=00:06:02.52 bitrate=N/A speed=18.5x    frame= 8920 fps=443 q=-0.0 size=N/A time=00:06:12.03 bitrate=N/A speed=18.5x    frame= 9180 fps=445 q=-0.0 size=N/A time=00:06:22.88 bitrate=N/A speed=18.6x    frame= 9446 fps=447 q=-0.0 size=N/A time=00:06:33.97 bitrate=N/A speed=18.6x    frame= 9720 fps=449 q=-0.0 size=N/A time=00:06:45.40 bitrate=N/A speed=18.7x    frame= 9973 fps=450 q=-0.0 size=N/A time=00:06:55.95 bitrate=N/A speed=18.8x    frame=10236 fps=451 q=-0.0 size=N/A time=00:07:06.92 bitrate=N/A speed=18.8x    frame=10496 fps=452 q=-0.0 size=N/A time=00:07:17.77 bitrate=N/A speed=18.9x    frame=10753 fps=453 q=-0.0 size=N/A time=00:07:28.48 bitrate=N/A speed=18.9x    frame=11007 fps=454 q=-0.0 size=N/A time=00:07:39.08 bitrate=N/A speed=18.9x    frame=11280 fps=456 q=-0.0 size=N/A time=00:07:50.47 bitrate=N/A speed=  19x    frame=11543 fps=457 q=-0.0 size=N/A time=00:08:01.43 bitrate=N/A speed=  19x    frame=11805 fps=457 q=-0.0 size=N/A time=00:08:12.36 bitrate=N/A speed=19.1x    frame=12018 fps=456 q=-0.0 size=N/A time=00:08:21.25 bitrate=N/A speed=  19x    frame=12253 fps=457 q=-0.0 size=N/A time=00:08:31.05 bitrate=N/A speed=  19x    frame=12482 fps=456 q=-0.0 size=N/A time=00:08:40.60 bitrate=N/A speed=  19x    frame=12671 fps=455 q=-0.0 size=N/A time=00:08:48.48 bitrate=N/A speed=  19x    frame=12866 fps=453 q=-0.0 size=N/A time=00:08:56.61 bitrate=N/A speed=18.9x    frame=13068 fps=452 q=-0.0 size=N/A time=00:09:05.04 bitrate=N/A speed=18.9x    frame=13281 fps=452 q=-0.0 size=N/A time=00:09:13.92 bitrate=N/A speed=18.8x    frame=13502 fps=451 q=-0.0 size=N/A time=00:09:23.14 bitrate=N/A speed=18.8x    frame=13706 fps=450 q=-0.0 size=N/A time=00:09:31.65 bitrate=N/A speed=18.8x    frame=13929 fps=450 q=-0.0 size=N/A time=00:09:40.95 bitrate=N/A speed=18.8x    frame=14189 fps=451 q=-0.0 size=N/A time=00:09:51.79 bitrate=N/A speed=18.8x    frame=14417 fps=451 q=-0.0 size=N/A time=00:10:01.30 bitrate=N/A speed=18.8x    frame=14669 fps=451 q=-0.0 size=N/A time=00:10:11.81 bitrate=N/A speed=18.8x    frame=14921 fps=452 q=-0.0 size=N/A time=00:10:22.33 bitrate=N/A speed=18.8x    frame=15172 fps=452 q=-0.0 size=N/A time=00:10:32.79 bitrate=N/A speed=18.9x    frame=15417 fps=453 q=-0.0 size=N/A time=00:10:43.01 bitrate=N/A speed=18.9x    frame=15670 fps=453 q=-0.0 size=N/A time=00:10:53.56 bitrate=N/A speed=18.9x    frame=15901 fps=453 q=-0.0 size=N/A time=00:11:03.20 bitrate=N/A speed=18.9x    frame=16134 fps=453 q=-0.0 size=N/A time=00:11:12.92 bitrate=N/A speed=18.9x    frame=16358 fps=453 q=-0.0 size=N/A time=00:11:22.26 bitrate=N/A speed=18.9x    frame=16593 fps=453 q=-0.0 size=N/A time=00:11:32.06 bitrate=N/A speed=18.9x    frame=16838 fps=453 q=-0.0 size=N/A time=00:11:42.28 bitrate=N/A speed=18.9x    frame=17083 fps=454 q=-0.0 size=N/A time=00:11:52.50 bitrate=N/A speed=18.9x    frame=17350 fps=454 q=-0.0 size=N/A time=00:12:03.63 bitrate=N/A speed=  19x    frame=17594 fps=455 q=-0.0 size=N/A time=00:12:13.81 bitrate=N/A speed=  19x    frame=17820 fps=454 q=-0.0 size=N/A time=00:12:23.24 bitrate=N/A speed=  19x    frame=18077 fps=455 q=-0.0 size=N/A time=00:12:33.96 bitrate=N/A speed=  19x    frame=18336 fps=456 q=-0.0 size=N/A time=00:12:44.76 bitrate=N/A speed=  19x    frame=18584 fps=456 q=-0.0 size=N/A time=00:12:55.10 bitrate=N/A speed=  19x    frame=18845 fps=457 q=-0.0 size=N/A time=00:13:05.99 bitrate=N/A speed=  19x    frame=19095 fps=457 q=-0.0 size=N/A time=00:13:16.42 bitrate=N/A speed=19.1x    frame=19344 fps=457 q=-0.0 size=N/A time=00:13:26.80 bitrate=N/A speed=19.1x    frame=19608 fps=458 q=-0.0 size=N/A time=00:13:37.81 bitrate=N/A speed=19.1x    frame=19859 fps=458 q=-0.0 size=N/A time=00:13:48.28 bitrate=N/A speed=19.1x    frame=20124 fps=459 q=-0.0 size=N/A time=00:13:59.33 bitrate=N/A speed=19.1x    frame=20388 fps=459 q=-0.0 size=N/A time=00:14:10.34 bitrate=N/A speed=19.2x    frame=20639 fps=460 q=-0.0 size=N/A time=00:14:20.81 bitrate=N/A speed=19.2x    frame=20903 fps=460 q=-0.0 size=N/A time=00:14:31.82 bitrate=N/A speed=19.2x    frame=21151 fps=461 q=-0.0 size=N/A time=00:14:42.17 bitrate=N/A speed=19.2x    frame=21390 fps=461 q=-0.0 size=N/A time=00:14:52.14 bitrate=N/A speed=19.2x    frame=21618 fps=461 q=-0.0 size=N/A time=00:15:01.65 bitrate=N/A speed=19.2x    frame=21870 fps=461 q=-0.0 size=N/A time=00:15:12.16 bitrate=N/A speed=19.2x    frame=22086 fps=460 q=-0.0 size=N/A time=00:15:21.17 bitrate=N/A speed=19.2x    frame=22341 fps=461 q=-0.0 size=N/A time=00:15:31.80 bitrate=N/A speed=19.2x    frame=22600 fps=461 q=-0.0 size=N/A time=00:15:42.60 bitrate=N/A speed=19.2x    frame=22855 fps=462 q=-0.0 size=N/A time=00:15:53.24 bitrate=N/A speed=19.3x    frame=23107 fps=462 q=-0.0 size=N/A time=00:16:03.75 bitrate=N/A speed=19.3x    frame=23352 fps=462 q=-0.0 size=N/A time=00:16:13.97 bitrate=N/A speed=19.3x    frame=23596 fps=462 q=-0.0 size=N/A time=00:16:24.14 bitrate=N/A speed=19.3x    frame=23846 fps=462 q=-0.0 size=N/A time=00:16:34.57 bitrate=N/A speed=19.3x    frame=24089 fps=462 q=-0.0 size=N/A time=00:16:44.71 bitrate=N/A speed=19.3x    frame=24340 fps=463 q=-0.0 size=N/A time=00:16:55.18 bitrate=N/A speed=19.3x    frame=24597 fps=463 q=-0.0 size=N/A time=00:17:05.89 bitrate=N/A speed=19.3x    frame=24838 fps=463 q=-0.0 size=N/A time=00:17:15.95 bitrate=N/A speed=19.3x    frame=25104 fps=463 q=-0.0 size=N/A time=00:17:27.04 bitrate=N/A speed=19.3x    frame=25370 fps=464 q=-0.0 size=N/A time=00:17:38.14 bitrate=N/A speed=19.4x    frame=25632 fps=464 q=-0.0 size=N/A time=00:17:49.06 bitrate=N/A speed=19.4x    frame=25869 fps=464 q=-0.0 size=N/A time=00:17:58.95 bitrate=N/A speed=19.4x    frame=26120 fps=465 q=-0.0 size=N/A time=00:18:09.42 bitrate=N/A speed=19.4x    frame=26372 fps=465 q=-0.0 size=N/A time=00:18:19.93 bitrate=N/A speed=19.4x    frame=26638 fps=465 q=-0.0 size=N/A time=00:18:31.02 bitrate=N/A speed=19.4x    frame=26884 fps=465 q=-0.0 size=N/A time=00:18:41.28 bitrate=N/A speed=19.4x    frame=27133 fps=465 q=-0.0 size=N/A time=00:18:51.67 bitrate=N/A speed=19.4x    frame=27400 fps=466 q=-0.0 size=N/A time=00:19:02.80 bitrate=N/A speed=19.4x    frame=27653 fps=466 q=-0.0 size=N/A time=00:19:13.36 bitrate=N/A speed=19.4x    frame=27922 fps=466 q=-0.0 size=N/A time=00:19:24.58 bitrate=N/A speed=19.4x    frame=28172 fps=467 q=-0.0 size=N/A time=00:19:35.00 bitrate=N/A speed=19.5x    frame=28441 fps=467 q=-0.0 size=N/A time=00:19:46.22 bitrate=N/A speed=19.5x    frame=28680 fps=467 q=-0.0 size=N/A time=00:19:56.19 bitrate=N/A speed=19.5x    frame=28943 fps=467 q=-0.0 size=N/A time=00:20:07.16 bitrate=N/A speed=19.5x    frame=29214 fps=468 q=-0.0 size=N/A time=00:20:18.46 bitrate=N/A speed=19.5x    frame=29488 fps=468 q=-0.0 size=N/A time=00:20:29.89 bitrate=N/A speed=19.5x    frame=29760 fps=469 q=-0.0 size=N/A time=00:20:41.24 bitrate=N/A speed=19.6x    frame=30029 fps=469 q=-0.0 size=N/A time=00:20:52.45 bitrate=N/A speed=19.6x    frame=30290 fps=470 q=-0.0 size=N/A time=00:21:03.34 bitrate=N/A speed=19.6x    frame=30550 fps=470 q=-0.0 size=N/A time=00:21:14.18 bitrate=N/A speed=19.6x    frame=30804 fps=470 q=-0.0 size=N/A time=00:21:24.78 bitrate=N/A speed=19.6x    frame=31048 fps=470 q=-0.0 size=N/A time=00:21:34.96 bitrate=N/A speed=19.6x    frame=31309 fps=470 q=-0.0 size=N/A time=00:21:45.84 bitrate=N/A speed=19.6x    frame=31559 fps=470 q=-0.0 size=N/A time=00:21:56.27 bitrate=N/A speed=19.6x    frame=31827 fps=471 q=-0.0 size=N/A time=00:22:07.45 bitrate=N/A speed=19.6x    frame=32096 fps=471 q=-0.0 size=N/A time=00:22:18.67 bitrate=N/A speed=19.6x    frame=32363 fps=471 q=-0.0 size=N/A time=00:22:29.80 bitrate=N/A speed=19.7x    frame=32588 fps=471 q=-0.0 size=N/A time=00:22:39.19 bitrate=N/A speed=19.7x    frame=32813 fps=471 q=-0.0 size=N/A time=00:22:48.57 bitrate=N/A speed=19.6x    frame=33034 fps=471 q=-0.0 size=N/A time=00:22:57.79 bitrate=N/A speed=19.6x    frame=33267 fps=470 q=-0.0 size=N/A time=00:23:07.51 bitrate=N/A speed=19.6x    frame=33521 fps=471 q=-0.0 size=N/A time=00:23:18.10 bitrate=N/A speed=19.6x    frame=33763 fps=471 q=-0.0 size=N/A time=00:23:28.19 bitrate=N/A speed=19.6x    frame=34015 fps=471 q=-0.0 size=N/A time=00:23:38.70 bitrate=N/A speed=19.6x    [Parsed_ssim_10 @ 000001f05236c300] SSIM Y:0.993662 (21.980791) U:0.990749 (20.338110) V:0.990774 (20.349964) All:0.992696 (21.364098)
[out#0/null @ 000001f0455c6e00] video:14696KiB audio:267492KiB subtitle:0KiB other streams:0KiB global headers:0KiB muxing overhead: unknown
frame=34201 fps=471 q=-0.0 Lsize=N/A time=00:23:46.46 bitrate=N/A speed=19.6x    
